.
..............................Site Info...........................

 -   http://www.scenetime.com  *_*    

Scenetime .Always on time . friendly online private torrent community ..

     We care to share . Join us on  http://www.scenetime.com 

    Be the first to get new release at  http://www.scenetime.com

        Seed back for speed


...................................NFO:.................................................                                                                                                     
       
     
     
       
       
     
     
                                         
                                         
                EXVID                    
                                         
         
                                         
         Filled the Archives             
                                         
         
                                         
                With:                    
                                         
         
                                         
                                    
     E240                           
                                    
     SP               (C) 2009      
                                         
     
     
     
                                                                                  
                                                                                   
                  Pathology.2008.WS.DVDRip.XviD-EXViD                               
                                                                                   
                                                                                  
     
                                                                                               
EXViD aims to iNTERNAL those releases which have been lost in the archives.
EXViD aims to PRE non-internal releases which have poor sources and are likely skipped by others. 
http://www.imdb.com/title/tt0964539/
Subtitles: Dutch
Date: 2012.10

Director: Marc Schlermann

Genre: Crime | Thriller

Plot:
A group of medical students devise a deadly game: to see which one of them can commit the
perfect murder.

Cast:
Milo Ventimiglia	 ...	Ted Grey
Michael Weston	 ...	Jake Gallo
Alyssa Milano	 ...	Gwen Williamson
Lauren Lee Smith	 ...	Juliette Bath
Johnny Whitworth	 ...	Griffin Cavenaugh
John de Lancie	 ...	Dr. Quentin Morris
Mei Melanon	 ...	Catherine Ivy
Keir O'Donnell	 ...	Ben Stravinsky
Buddy Lewis	 ...	Harper Johnson
Dan Callahan	 ...	Chip Bentwood
Larry Drake	 ...	Fat Bastard
Med Abrous	 ...	Young Pathology Resident
Alan Blumenfeld	 ...	Mr. Williamson
Gary Buckner	 ...	Motherfucker
Jeb Burris	 ...	Worker

Stats:
Format                           : AVI
Format/Info                      : Audio Video Interleave
File size                        : 702 MiB
Duration                         : 1h 30mn
Overall bit rate                 : 1 079 Kbps
Writing application              : Nandub v1.0rc2
Writing library                  : Nandub build 1852/release

Video
ID                               : 0
Format                           : MPEG-4 Visual
Format profile                   : Advanced Simple@L5
Format settings, BVOP            : No
Format settings, QPel            : No
Format settings, GMC             : No warppoints
Format settings, Matrix          : Default (H.263)
Codec ID                         : XVID
Codec ID/Hint                    : XviD
Duration                         : 1h 30mn
Bit rate                         : 914 Kbps
Width                            : 640 pixels
Height                           : 272 pixels
Display aspect ratio             : 2.35:1
Frame rate                       : 25.000 fps
Color space                      : YUV
Chroma subsampling               : 4:2:0
Bit depth                        : 8 bits
Scan type                        : Progressive
Compression mode                 : Lossy
Bits/(Pixel*Frame)               : 0.210
Stream size                      : 594 MiB (85%)
Writing library                  : XviD 64

Audio
ID                               : 1
Format                           : MPEG Audio
Format version                   : Version 1
Format profile                   : Layer 3
Mode                             : Joint stereo
Mode extension                   : MS Stereo
Codec ID                         : 55
Codec ID/Hint                    : MP3
Duration                         : 1h 30mn
Bit rate mode                    : Variable
Bit rate                         : 160 Kbps
Channel(s)                       : 2 channels
Sampling rate                    : 48.0 KHz
Compression mode                 : Lossy
Stream size                      : 99.2 MiB (14%)
Alignment                        : Aligned on interleaves
Interleave, duration             : 24 ms (0.60 video frame)
Interleave, preload duration     : 493 ms
Writing library                  : LAME3.98r
Encoding settings                : -m j -V 4 -q 3 -lowpass 17.5 --abr 160




Release notes:
BiFOS rip was 1.82:1. Ours is 2.35:1.

enjoy!

Looking for:
75TB+ Archives
DUTCH/FLEMiSH Archives
                                                                                                    
Greets: CRBS EPiSODE FiCO FLS iLS KLASSiGER LiPSYNC MADE NODLABS RUNNER SPRiNTER      
   

                                                                    ASCII DONE BY XX^NFO 2oo9